<?xml version="1.0" encoding="utf-8"?>
<!-- Generator: Adobe Illustrator 25.2.1, SVG Export Plug-In . SVG Version: 6.00 Build 0)  -->
<svg version="1.1" id="Camada_1" xmlns="http://www.w3.org/2000/svg" xmlns:xlink="http://www.w3.org/1999/xlink" x="0px" y="0px"
	 viewBox="0 0 1080 561.7" style="enable-background:new 0 0 1080 561.7;" xml:space="preserve">
<style type="text/css">
	.st0{clip-path:url(#SVGID_2_);}
	.st1{fill:#FFFFFF;}
	.st2{clip-path:url(#SVGID_4_);}
</style>
<g>
	<g>
		<defs>
			<rect id="SVGID_1_" x="28" y="16.6" width="218.7" height="528.4"/>
		</defs>
		<clipPath id="SVGID_2_">
			<use xlink:href="#SVGID_1_"  style="overflow:visible;"/>
		</clipPath>
		<g class="st0">
			<path class="st1" d="M170.2,105l0.1,1.8c4,2.3,6.1,4.2,10.1,6.8c10.6,6.6,23.7,18.7,22,59.6c3.1,9,4.3,26.4,7.1,32
				c5.4,11,9.3,18.2,10.9,28.4c0,0,1.6,16.1,3.7,17.3c11,2.5,7.8,3.6,9.3,5.6c1.7,2.2,8.1,2,8.1,8c2.3,2.9,4,5.9,5.1,9.1V60.7
				c0-24.4-19.9-44-44.2-44h-42c6.7,2.5,10.5,5.2,12.9,9.7c5.4,0.5,11.8,12.5,1.9,30.6c4.3,3.1,0.9,7.6-2.2,12.7
				c-0.9,1.5-2,4.6-5,4.3c-4,8.2-8.5,15.9-12.1,16.4c-0.9,1.2-1.7,4.8-0.2,6.3C160.7,99,166.9,102,170.2,105z"/>
			<path class="st1" d="M209.6,544.8l-0.5,0.2c19.4-11.7,7.4-34,3.7-46.9l0.8-2.3c0.9-1.9-1.1-6-1.1-6c-2.5-2-2.9-12.8-4.2-17.9
				c-2-8.2,3.7-22.4,3.7-27.2c0-4.8-3.7-11.4-10.4-19.9c-1.6-1.9-6.5-43.1-10.9-53.6c-6.1-14.4-7.8-12-15-29.3
				c-5.4-12-1.2-30-13.6-71.3l2.8-2.6c0,0-9.9-36-13.2-45.9c-3.1-9.9-9-10.5-9-10.5l0.3-5.1c0.5-1.5,12.1-31.5,13-32.4
				c0.1-0.6,16.8-12,17.1-10.4c1.4,7.4,7.8,44.6,10.6,50.6c2.8,6,12.4,24.2,16.8,35.7c-17.2,4.2-30.1,19.8-30.1,38
				c0,21.6,17.7,39.4,39.4,39.4c16.6,0,31-10.4,36.8-24.9l-0.1,199C246.6,523.5,230.8,541.5,209.6,544.8z"/>
			<path class="st1" d="M121,467.2c0-4.5-0.9-7.1-4.7-7.1h-4.8V475h4.2C120.6,475,121,471.4,121,467.2z"/>
			<path class="st1" d="M197.2,492.7c-7.1-6.3-2.3-9-2.6-11.6c-4.6-19.1-20-30.9-12.1-37.2c-2-6.5-5.9-14.4-5.7-14.2
				c-6.4-3.7-12.4-8-18.1-12.4c-15.5-11.9-27.1-24.4-29.6-26.9c-4.2-4.6-11.3-9.1-12.7-12.8c-0.2-0.1-0.2-0.1-0.3-0.3
				c-6.4-6.3-33.8-45.2-40.2-59.6l-11.6-1.5c-5.1-21.2-22.5-38.9-23-60.1c-0.3-8.2,3.6-25.2,5-28.7c1.4-3.4,8.1-9.1,8.1-9.1v-5.7
				c-25.1,0.8-17.8-1.7-22.2-11.4c-3-6.8-0.9-8.2,0.2-12.8c3.4-13.7,14.6-34.9,19.2-44.5c1.4-4.8,6.2-16.5,6.2-16.5
				c5.1-10.5,9.3-17.8,13.3-23c10.4-13.6,18.3-12.5,34.3-14.1l1.2-1.5c3.7-0.2,6.8-0.3,9.3-0.6c11.8-1.2,9.8-5.6,12.2-23.2
				c-3.3,1.4-4.2-6.6-4.2-6.6c-1.7-12,3.3-9.7,5.7-10c0.5-19.9,2.5-26.1,16.9-31.7H71.2C47.4,17.1,28,36.6,28,60.7v440.4
				c0,23.9,19.4,43.5,43.3,44h131.5C187.9,537,196.7,521.8,197.2,492.7z M90.6,515H75.7L65,476.7l-0.3-2.3h-0.2v40.8H51.4v-65.9
				h14.9l10.6,36.1l0.5,2.6h0.2V449h13.2L90.6,515L90.6,515z M117.9,515H95.7V449h21.7c11,0,16.4,4.2,16.4,15.4
				c0,7-0.9,13.1-8.4,15.6v0.1c7.4,1.4,10.1,7,10.1,15.1C135.6,506.5,131.4,515,117.9,515z M164.8,515l-1.4-14.4h-10.7l-1.6,14.4
				h-15l12.1-65.9h20.2l12.4,65.9H164.8z"/>
			<path class="st1" d="M116.5,485.8h-4.8v17.9h4.3c5.1,0,5.7-2.5,5.7-9.1C121.8,490.1,121.3,485.8,116.5,485.8z"/>
			<path class="st1" d="M158.4,458.9h-0.3v1.5l-3.9,29.5h7.8l-3.6-29.5L158.4,458.9L158.4,458.9z"/>
		</g>
	</g>
</g>
<g>
	<g>
		<defs>
			<rect id="SVGID_3_" x="292.2" y="71.3" width="759.8" height="389.9"/>
		</defs>
		<clipPath id="SVGID_4_">
			<use xlink:href="#SVGID_3_"  style="overflow:visible;"/>
		</clipPath>
		<g class="st2">
			<path class="st1" d="M435.2,460.3h87.5v-389h-77.4v229.6h-0.9l-2.7-15.5l-62-213.2h-87.5v389h77.4V220.7h0.9l1.8,13.7
				L435.2,460.3z"/>
			<path class="st1" d="M727.7,255.4v-0.9c43.7-14.6,49.2-51,49.2-92c0-66.5-31.9-91.1-96.6-91.1H552.8v389H683
				c79.3,0,103.9-50.1,103.9-115.7C786.9,296.4,771.4,263.6,727.7,255.4z M645.7,136.9h28.2c21.9,0,27.3,15.5,27.3,41.9
				c0,24.6-2.7,45.6-31,45.6h-24.6L645.7,136.9L645.7,136.9z M672.1,393.8h-25.5V288.1h28.2c28.2,0,31,25.5,31,51.9
				C705.8,379.3,702.2,393.8,672.1,393.8z"/>
			<path class="st1" d="M979.1,71.3H860.7l-71.1,389H878l9.1-84.7H950l8.2,84.7h93.8L979.1,71.3z M896.2,312.8l22.8-174v-9.1h1.8
				v9.1l21,174H896.2z"/>
		</g>
	</g>
</g>
</svg>
